<svg width="15" height="13" viewBox="0 0 15 13" fill="none" xmlns="http://www.w3.org/2000/svg">
<path d="M0.767508 4.96819C0.442058 4.96819 0.175781 4.72332 0.175781 4.42403V0.544161C0.175781 0.244872 0.442058 0 0.767508 0H4.9806C5.30605 0 5.57233 0.244872 5.57233 0.544161C5.57233 0.843449 5.30605 1.08832 4.9806 1.08832H1.35923V4.41859C1.35923 4.72332 1.09296 4.96819 0.767508 4.96819Z" fill="#404040"/>
<path d="M6.00382 5.9101C5.84997 5.9101 5.70204 5.85568 5.58369 5.75229L0.346908 0.931027C0.116135 0.718804 0.116135 0.375983 0.346908 0.16376C0.577682 -0.0484628 0.95047 -0.0484628 1.18124 0.16376L6.41803 4.98502C6.6488 5.19725 6.6488 5.54007 6.41803 5.75229C6.3056 5.85568 6.15175 5.9101 6.00382 5.9101Z" fill="#404040"/>
<path d="M13.714 4.96819C13.3886 4.96819 13.1223 4.72332 13.1223 4.42403V1.08832H9.50091C9.17546 1.08832 8.90918 0.843449 8.90918 0.544161C8.90918 0.244872 9.17546 0 9.50091 0H13.714C14.0395 0 14.3057 0.244872 14.3057 0.544161V4.41859C14.3057 4.72332 14.0454 4.96819 13.714 4.96819Z" fill="#404040"/>
<path d="M8.48383 5.9101C8.32998 5.9101 8.18205 5.85568 8.06371 5.75229C7.83293 5.54007 7.83293 5.19725 8.06371 4.98502L13.3005 0.16376C13.5313 -0.0484628 13.904 -0.0484628 14.1348 0.16376C14.3656 0.375983 14.3656 0.718804 14.1348 0.931027L8.89804 5.75229C8.78561 5.85568 8.63176 5.9101 8.48383 5.9101Z" fill="#404040"/>
<path d="M4.98554 13.0001H0.766531C0.441082 13.0001 0.174805 12.7552 0.174805 12.4559V8.5815C0.174805 8.28221 0.441082 8.03734 0.766531 8.03734C1.09198 8.03734 1.35826 8.28221 1.35826 8.5815V11.9118H4.97963C5.30508 11.9118 5.57135 12.1566 5.57135 12.4559C5.57727 12.7607 5.31099 13.0001 4.98554 13.0001Z" fill="#404040"/>
<path d="M0.767034 13.0001C0.613185 13.0001 0.465254 12.9456 0.346908 12.8423C0.116135 12.63 0.116135 12.2872 0.346908 12.075L5.58369 7.25373C5.81446 7.0415 6.18725 7.0415 6.41803 7.25373C6.6488 7.46595 6.6488 7.80877 6.41803 8.02099L1.18716 12.8423C1.06881 12.9511 0.920883 13.0001 0.767034 13.0001Z" fill="#404040"/>
<path d="M13.715 13.0001H9.50188C9.17643 13.0001 8.91016 12.7552 8.91016 12.4559C8.91016 12.1566 9.17643 11.9118 9.50188 11.9118H13.1233V8.5815C13.1233 8.28221 13.3895 8.03734 13.715 8.03734C14.0404 8.03734 14.3067 8.28221 14.3067 8.5815V12.4559C14.3067 12.7607 14.0463 13.0001 13.715 13.0001Z" fill="#404040"/>
<path d="M13.7148 13.0001C13.5609 13.0001 13.413 12.9456 13.2946 12.8423L8.05785 8.02099C7.82707 7.80877 7.82707 7.46595 8.05785 7.25373C8.28862 7.0415 8.66141 7.0415 8.89218 7.25373L14.129 12.075C14.3597 12.2872 14.3597 12.63 14.129 12.8423C14.0165 12.9511 13.8686 13.0001 13.7148 13.0001Z" fill="#404040"/>
</svg>
