<svg width="15" height="13" viewBox="0 0 15 13" fill="none" xmlns="http://www.w3.org/2000/svg">
<path d="M7.23905 3.25C7.23905 2.95208 6.9741 2.70833 6.65028 2.70833H3.60046L3.98905 0.985833L4.00082 0.86125C4.00082 0.693333 3.92428 0.541667 3.80653 0.427917L3.3414 0L0.432886 2.67583C0.273919 2.82208 0.173828 3.02792 0.173828 3.25V6.77083C0.173828 7.22042 0.568303 7.58333 1.05698 7.58333H5.03117C5.3962 7.58333 5.70825 7.3775 5.84367 7.09042L7.17428 4.225C7.2155 4.13292 7.23905 4.03 7.23905 3.92708V3.25ZM6.06151 3.86208L4.83687 6.5H1.35136V3.36375L2.48769 2.31833L2.15209 3.79167H6.06151V3.86208ZM13.4211 5.41667H9.44693C9.08189 5.41667 8.76984 5.6225 8.63443 5.90958L7.30381 8.775C7.2626 8.86708 7.23905 8.97 7.23905 9.07292V9.75C7.23905 10.0479 7.50399 10.2917 7.82781 10.2917H10.8776L10.489 12.0142L10.4773 12.1442C10.4773 12.3121 10.5538 12.4637 10.6716 12.5775L11.1367 13L14.0452 10.3242C14.2042 10.1779 14.3043 9.97208 14.3043 9.75V6.22917C14.3043 5.77958 13.9098 5.41667 13.4211 5.41667ZM13.1267 9.63625L11.9904 10.6817L12.326 9.20833H8.41658V9.13792L9.64122 6.5H13.1267V9.63625Z" fill="#404040"/>
</svg>
