<svg width="14" height="14" viewBox="0 0 14 14" fill="none" xmlns="http://www.w3.org/2000/svg">
<path d="M7.00299 14C6.99701 14 7.00299 14 7.00299 14C6.65642 14 6.33376 13.8684 6.09475 13.6232L0.382416 7.90599C0.137431 7.6608 0 7.33786 0 6.991C0 6.64414 0.137431 6.3212 0.37644 6.08199L2.16901 4.28788C2.32437 4.13239 2.55143 4.07259 2.76056 4.13837C2.9697 4.19818 3.13103 4.37161 3.17286 4.5869C3.23261 4.84405 3.35809 5.07729 3.54332 5.26268C4.05122 5.77699 4.94153 5.77101 5.4554 5.26268C5.98122 4.73641 5.98122 3.87524 5.4554 3.34897C5.27017 3.16357 5.03713 3.03799 4.7802 2.98416C4.56509 2.9423 4.39181 2.78083 4.33205 2.57152C4.26632 2.36221 4.32608 2.13495 4.48143 1.97947L6.09475 0.364771C6.57874 -0.119637 7.42723 -0.119637 7.91122 0.364771L9.08237 1.53692C9.20785 1.2678 9.37516 1.01663 9.59027 0.801337C10.0683 0.316928 10.7136 0.0537929 11.3888 0.0537929C12.07 0.0537929 12.7093 0.316928 13.1874 0.801337C14.1793 1.79407 14.1793 3.40877 13.1874 4.40151C12.9723 4.6168 12.7213 4.79023 12.4524 4.90984L13.6176 6.08199C13.8626 6.3212 13.994 6.64414 13.994 6.991C13.994 7.33786 13.8566 7.6608 13.6176 7.90001L12.0043 9.51471C11.8489 9.6702 11.6219 9.73 11.4127 9.66422C11.2036 9.60441 11.0423 9.43098 11.0004 9.21569C10.9466 8.95854 10.8212 8.7253 10.6359 8.53991C10.128 8.03158 9.23773 8.03158 8.72386 8.53991C8.19804 9.06618 8.19804 9.92735 8.72386 10.4536C8.90909 10.639 9.14213 10.7646 9.39906 10.8184C9.61417 10.8663 9.78745 11.0218 9.8472 11.2311C9.90696 11.4404 9.85318 11.6676 9.69782 11.8231L7.90525 13.6172C7.66624 13.8624 7.34358 14 7.00299 14ZM2.40205 5.74709L1.22493 6.92522C1.20102 6.95512 1.19505 6.97904 1.19505 6.991C1.19505 7.00894 1.20102 7.03286 1.21895 7.05678L6.93128 12.774C6.97311 12.8159 7.01494 12.8218 7.05677 12.774L8.23389 11.5959C8.10841 11.5062 7.9889 11.4105 7.87537 11.3028C6.88348 10.3101 6.88348 8.68942 7.87537 7.69668C8.35339 7.21825 8.99872 6.94914 9.67392 6.94914C10.3491 6.94914 10.9945 7.21227 11.4725 7.69668C11.58 7.80433 11.6816 7.92393 11.7712 8.0555L12.7691 7.05678C12.793 7.03286 12.799 7.00894 12.799 6.991C12.799 6.97306 12.793 6.94914 12.7751 6.9312L10.8092 4.95768C10.63 4.77827 10.5822 4.50915 10.6897 4.2819C10.7913 4.05465 11.0243 3.9171 11.2813 3.93504C11.6816 3.96494 12.07 3.82739 12.3449 3.5523C12.8707 3.02603 12.8707 2.17084 12.3449 1.63859C11.831 1.13026 10.9466 1.13026 10.4328 1.63859C10.1579 1.91966 10.0205 2.30839 10.0504 2.70907C10.0683 2.96024 9.93086 3.19348 9.7038 3.30112C9.47674 3.40279 9.20785 3.36093 9.02859 3.18152L7.06274 1.21398C7.02091 1.17212 6.97909 1.17212 6.93726 1.21398L5.93939 2.20672C6.06487 2.29642 6.18438 2.39211 6.29791 2.50574C7.2898 3.49847 7.2898 5.11915 6.29791 6.11189C5.81391 6.5963 5.17456 6.85943 4.49936 6.85943C3.81818 6.85943 3.17883 6.5963 2.70081 6.11189C2.58728 5.99826 2.4857 5.87865 2.40205 5.74709Z" fill="#404040"/>
</svg>
