<svg width="17" height="12" viewBox="0 0 17 12" fill="none" xmlns="http://www.w3.org/2000/svg">
<path d="M15.2465 12H1.7535C0.787587 12 0 11.2337 0 10.294V1.70602C0 0.766265 0.787587 0 1.7535 0H15.2465C16.2124 0 17 0.766265 17 1.70602V10.294C17 11.2337 16.2124 12 15.2465 12ZM1.7535 1.44578C1.60489 1.44578 1.48601 1.56145 1.48601 1.70602V10.294C1.48601 10.4386 1.60489 10.5542 1.7535 10.5542H15.2465C15.3951 10.5542 15.514 10.4386 15.514 10.294V1.70602C15.514 1.56145 15.3951 1.44578 15.2465 1.44578H1.7535Z" fill="#404040"/>
<path d="M15.2469 11.6386H1.75385C1.18174 11.6386 0.669062 11.2916 0.46845 10.7712C0.416439 10.6338 0.45359 10.4748 0.565041 10.3736L5.83296 5.8049C5.98899 5.67478 6.21932 5.68201 6.3605 5.83382C6.49424 5.98562 6.48681 6.20972 6.33078 6.34707L1.29319 10.7206C1.41207 10.8435 1.58296 10.923 1.76128 10.923H15.2543C15.4326 10.923 15.6035 10.8507 15.7224 10.7206L10.6179 6.28924C10.4619 6.15912 10.447 5.92779 10.5882 5.78321C10.7219 5.63141 10.9597 5.62418 11.1157 5.7543L16.4431 10.3736C16.5546 10.4748 16.5991 10.6338 16.5397 10.7712C16.3316 11.2916 15.819 11.6386 15.2469 11.6386Z" fill="#404040"/>
<path d="M8.49978 8.39265C8.41062 8.39265 8.32146 8.36374 8.25459 8.29868L0.564463 1.62639C0.445582 1.52518 0.408432 1.36615 0.460442 1.2288C0.668484 0.708316 1.18116 0.361328 1.75327 0.361328H15.2463C15.8184 0.361328 16.3311 0.708316 16.5317 1.2288C16.5837 1.36615 16.5465 1.52518 16.4351 1.62639L8.74497 8.29868C8.6781 8.35651 8.58894 8.39265 8.49978 8.39265ZM1.28518 1.28663L8.49978 7.54687L15.7144 1.28663C15.5955 1.15651 15.4246 1.08422 15.2463 1.08422H1.75327C1.57495 1.08422 1.40406 1.15651 1.28518 1.28663Z" fill="#404040"/>
</svg>
