<svg width="15" height="13" viewBox="0 0 15 13" fill="none" xmlns="http://www.w3.org/2000/svg">
<path d="M12.6374 7.137C12.6664 6.929 12.6882 6.721 12.6882 6.5C12.6882 6.279 12.6664 6.071 12.6374 5.863L14.17 4.7905C14.308 4.693 14.3443 4.5175 14.2571 4.3745L12.8044 2.1255C12.7391 2.0215 12.6156 1.963 12.4848 1.963C12.4413 1.963 12.3977 1.9695 12.3614 1.9825L10.5528 2.6325C10.1751 2.3725 9.76832 2.158 9.32525 1.9955L9.04924 0.273C9.02745 0.117 8.87492 0 8.69333 0H5.78797C5.60638 0 5.45385 0.117 5.43206 0.273L5.15605 1.9955C4.71298 2.158 4.30623 2.379 3.92853 2.6325L2.11994 1.9825C2.07636 1.9695 2.03278 1.963 1.9892 1.963C1.86572 1.963 1.74224 2.0215 1.67687 2.1255L0.224187 4.3745C0.129762 4.5175 0.173343 4.693 0.311348 4.7905L1.84393 5.863C1.81488 6.071 1.79309 6.2855 1.79309 6.5C1.79309 6.7145 1.81488 6.929 1.84393 7.137L0.311348 8.2095C0.173343 8.307 0.137026 8.4825 0.224187 8.6255L1.67687 10.8745C1.74224 10.9785 1.86572 11.037 1.99646 11.037C2.04004 11.037 2.08362 11.0305 2.11994 11.0175L3.92853 10.3675C4.30623 10.6275 4.71298 10.842 5.15605 11.0045L5.43206 12.727C5.45385 12.883 5.60638 13 5.78797 13H8.69333C8.87492 13 9.02745 12.883 9.04924 12.727L9.32525 11.0045C9.76832 10.842 10.1751 10.621 10.5528 10.3675L12.3614 11.0175C12.4049 11.0305 12.4485 11.037 12.4921 11.037C12.6156 11.037 12.7391 10.9785 12.8044 10.8745L14.2571 8.6255C14.3443 8.4825 14.308 8.307 14.17 8.2095L12.6374 7.137ZM11.1992 6.0255C11.2283 6.227 11.2355 6.3635 11.2355 6.5C11.2355 6.6365 11.221 6.7795 11.1992 6.9745L11.0975 7.709L11.744 8.164L12.5284 8.71L12.02 9.4965L11.0975 9.165L10.3421 8.892L9.68842 9.334C9.37609 9.542 9.07829 9.698 8.78049 9.8085L8.01057 10.088L7.89436 10.8225L7.74909 11.7H6.73221L6.5942 10.8225L6.47799 10.088L5.70807 9.8085C5.39574 9.6915 5.1052 9.542 4.81467 9.347L4.1537 8.892L3.38377 9.1715L2.46132 9.503L1.95288 8.7165L2.73733 8.1705L3.38377 7.7155L3.28209 6.981C3.2603 6.7795 3.24577 6.63 3.24577 6.5C3.24577 6.37 3.2603 6.2205 3.28209 6.0255L3.38377 5.291L2.73733 4.836L1.95288 4.29L2.46132 3.5035L3.38377 3.835L4.13917 4.108L4.79288 3.666C5.1052 3.458 5.403 3.302 5.7008 3.1915L6.47073 2.912L6.58694 2.1775L6.73221 1.3H7.74183L7.87983 2.1775L7.99605 2.912L8.76597 3.1915C9.07829 3.3085 9.36883 3.458 9.65937 3.653L10.3203 4.108L11.0903 3.8285L12.0127 3.497L12.5212 4.2835L11.744 4.836L11.0975 5.291L11.1992 6.0255ZM7.24065 3.9C5.63543 3.9 4.33528 5.0635 4.33528 6.5C4.33528 7.9365 5.63543 9.1 7.24065 9.1C8.84587 9.1 10.146 7.9365 10.146 6.5C10.146 5.0635 8.84587 3.9 7.24065 3.9ZM7.24065 7.8C6.44167 7.8 5.78797 7.215 5.78797 6.5C5.78797 5.785 6.44167 5.2 7.24065 5.2C8.03963 5.2 8.69333 5.785 8.69333 6.5C8.69333 7.215 8.03963 7.8 7.24065 7.8Z" fill="#404040"/>
</svg>
