<svg width="17" height="17" viewBox="0 0 17 17" fill="none" xmlns="http://www.w3.org/2000/svg">
<path d="M12.9524 15.381H1.61905V4.04762H8.90476V2.42857H1.61905C0.728571 2.42857 0 3.15714 0 4.04762V15.381C0 16.2714 0.728571 17 1.61905 17H12.9524C13.8429 17 14.5714 16.2714 14.5714 15.381V8.09524H12.9524V15.381ZM6.64619 12.8148L5.05952 10.9043L2.83333 13.7619H11.7381L8.87238 9.94905L6.64619 12.8148ZM14.5714 2.42857V0H12.9524V2.42857H10.5238C10.5319 2.43667 10.5238 4.04762 10.5238 4.04762H12.9524V6.4681C12.9605 6.47619 14.5714 6.4681 14.5714 6.4681V4.04762H17V2.42857H14.5714Z" fill="#F68C1E"/>
</svg>
