<svg width="16" height="12" viewBox="0 0 16 12" fill="none" xmlns="http://www.w3.org/2000/svg">
<path d="M11.2426 7.69677H12.6369V8.9796H11.2426V7.69677ZM11.2426 5.13112H12.6369V6.41394H11.2426V5.13112ZM11.2426 2.56546H12.6369V3.84829H11.2426V2.56546ZM8.96973 2.56546L9.84819 3.10425V2.56546H8.96973Z" fill="#404040"/>
<path d="M6.3623 0V0.968535L7.75668 1.82162V1.28283H14.0314V10.2626H11.2426V11.5455H15.4258V0H6.3623Z" fill="#404040"/>
<path d="M5.08576 1.73112L9.84756 4.64956V11.5448H0.0869141V4.79708L5.08576 1.73112ZM6.36162 10.2619H8.45319V5.23325L5.08576 3.2641L1.48129 5.37436V10.2619H3.57286V6.41345H6.36162V10.2619Z" fill="#404040"/>
</svg>
