<svg width="16" height="10" viewBox="0 0 16 10" fill="none" xmlns="http://www.w3.org/2000/svg">
<path d="M14.5455 4.03373V0.333333C14.5455 0.244928 14.5071 0.160143 14.4389 0.0976311C14.3708 0.035119 14.2783 0 14.1818 0H1.81818C1.72174 0 1.62925 0.035119 1.56105 0.0976311C1.49286 0.160143 1.45455 0.244928 1.45455 0.333333V4.03373C1.0442 4.11103 0.675465 4.31565 0.410507 4.61311C0.14555 4.91056 0.000567947 5.28265 0 5.66667V9.66667C0 9.75507 0.0383116 9.83986 0.106507 9.90237C0.174702 9.96488 0.267194 10 0.363636 10H1.81818C1.91462 10 2.00712 9.96488 2.07531 9.90237C2.14351 9.83986 2.18182 9.75507 2.18182 9.66667V8H13.8182V9.66667C13.8182 9.75507 13.8565 9.83986 13.9247 9.90237C13.9929 9.96488 14.0854 10 14.1818 10H15.6364C15.7328 10 15.8253 9.96488 15.8935 9.90237C15.9617 9.83986 16 9.75507 16 9.66667V5.66667C15.9995 5.28264 15.8545 4.91053 15.5895 4.61308C15.3246 4.31562 14.9558 4.111 14.5455 4.03373ZM2.18182 0.666667H13.8182V4H12.3636V2.33333C12.3636 2.24493 12.3253 2.16014 12.2571 2.09763C12.1889 2.03512 12.0964 2 12 2H9.09091C8.99447 2 8.90197 2.03512 8.83378 2.09763C8.76558 2.16014 8.72727 2.24493 8.72727 2.33333V4H7.27273V2.33333C7.27273 2.24493 7.23442 2.16014 7.16622 2.09763C7.09803 2.03512 7.00553 2 6.90909 2H4C3.90356 2 3.81107 2.03512 3.74287 2.09763C3.67468 2.16014 3.63636 2.24493 3.63636 2.33333V4H2.18182V0.666667ZM11.6364 4H9.45455V2.66667H11.6364V4ZM6.54545 4H4.36364V2.66667H6.54545V4ZM15.2727 9.33333H14.5455V7.66667C14.5455 7.57826 14.5071 7.49348 14.4389 7.43096C14.3708 7.36845 14.2783 7.33333 14.1818 7.33333H1.81818C1.72174 7.33333 1.62925 7.36845 1.56105 7.43096C1.49286 7.49348 1.45455 7.57826 1.45455 7.66667V9.33333H0.727273V5.66667C0.72759 5.40154 0.842627 5.14736 1.04714 4.95988C1.25166 4.77241 1.52895 4.66696 1.81818 4.66667H14.1818C14.471 4.66696 14.7483 4.77241 14.9529 4.95988C15.1574 5.14736 15.2724 5.40154 15.2727 5.66667V9.33333Z" fill="#F8655E"/>
<path d="M12 4V2.5H9V4.5H12V4Z" fill="#F8655E"/>
<path d="M7 4V2.5H4V4.5H7V4Z" fill="#F8655E"/>
</svg>
