<svg width="15" height="13" viewBox="0 0 15 13" fill="none" xmlns="http://www.w3.org/2000/svg">
<path d="M7.23905 0C3.33905 0 0.173828 2.912 0.173828 6.5C0.173828 10.088 3.33905 13 7.23905 13C11.139 13 14.3043 10.088 14.3043 6.5C14.3043 2.912 11.139 0 7.23905 0ZM3.75589 10.582C4.0597 9.997 5.91078 9.425 7.23905 9.425C8.56731 9.425 10.4255 9.997 10.7222 10.582C9.76133 11.284 8.55318 11.7 7.23905 11.7C5.92492 11.7 4.71676 11.284 3.75589 10.582ZM11.7325 9.6395C10.7222 8.5085 8.27057 8.125 7.23905 8.125C6.20752 8.125 3.75589 8.5085 2.74557 9.6395C2.02491 8.7685 1.58687 7.683 1.58687 6.5C1.58687 3.6335 4.12328 1.3 7.23905 1.3C10.3548 1.3 12.8912 3.6335 12.8912 6.5C12.8912 7.683 12.4532 8.7685 11.7325 9.6395ZM7.23905 2.6C5.86839 2.6 4.76622 3.614 4.76622 4.875C4.76622 6.136 5.86839 7.15 7.23905 7.15C8.6097 7.15 9.71187 6.136 9.71187 4.875C9.71187 3.614 8.6097 2.6 7.23905 2.6ZM7.23905 5.85C6.65263 5.85 6.17926 5.4145 6.17926 4.875C6.17926 4.3355 6.65263 3.9 7.23905 3.9C7.82546 3.9 8.29883 4.3355 8.29883 4.875C8.29883 5.4145 7.82546 5.85 7.23905 5.85Z" fill="#404040"/>
</svg>
