<svg width="14" height="14" viewBox="0 0 14 14" fill="none" xmlns="http://www.w3.org/2000/svg">
<g clip-path="url(#clip0)">
<path d="M5.46629 14C4.51124 14 3.61236 13.6194 2.93258 12.9217L1.04494 10.9843C0.370786 10.2924 0 9.3698 0 8.38381C0 7.40358 0.370786 6.48101 1.05056 5.78331C1.72472 5.09139 2.62921 4.70506 3.58427 4.70506C4.3764 4.70506 5.12921 4.96453 5.74719 5.44888L10.5618 0.507367C11.2247 -0.173028 12.382 -0.173028 13.0449 0.507367C13.5674 1.04361 13.691 1.84509 13.4045 2.50819L13.5899 2.69847C13.8539 2.96948 14 3.33274 14 3.71906C14 4.10539 13.8539 4.46865 13.5899 4.73966C13.3596 4.97606 13.0618 5.12022 12.7416 5.15481C12.6966 5.46618 12.5562 5.76602 12.3258 6.00819C11.7697 6.57903 10.7978 6.57903 10.2416 6.00819L10.2079 5.97359L8.24157 7.99171C9.39888 9.43323 9.32022 11.5782 8.00562 12.9217C7.32584 13.6136 6.42697 14 5.46629 14ZM3.58427 5.86404C2.92697 5.86404 2.30899 6.12928 1.84831 6.60209C1.38202 7.07491 1.1236 7.70918 1.1236 8.38381C1.1236 9.05844 1.38202 9.6927 1.8427 10.1655L3.73034 12.1029C4.19663 12.5815 4.81461 12.841 5.46629 12.841C6.1236 12.841 6.74157 12.5757 7.20225 12.1029C8.16292 11.1169 8.16292 9.51972 7.20225 8.53372L7.05056 8.38381C6.83146 8.15893 6.83146 7.79567 7.05056 7.57079L9.79775 4.75119C10.0112 4.53784 10.382 4.53784 10.5899 4.75119L11.0281 5.18941C11.1629 5.32779 11.3933 5.32779 11.5225 5.18941C11.6629 5.04526 11.6629 4.82038 11.5225 4.67623L11.0899 4.23801C10.9831 4.12845 10.927 3.9843 10.927 3.82862C10.927 3.67293 10.9888 3.52878 11.0899 3.41923C11.309 3.19435 11.6742 3.18859 11.8933 3.41346L12.3876 3.92088C12.4607 3.99583 12.5449 4.00737 12.5843 4.00737C12.6292 4.00737 12.7135 3.99583 12.7809 3.92088C12.8539 3.84592 12.8652 3.75943 12.8652 3.71906C12.8652 3.67293 12.8539 3.58644 12.7809 3.51725L12.2809 3.00407C12.0674 2.79073 12.0618 2.439 12.2584 2.21412C12.4831 1.96041 12.4719 1.56832 12.236 1.32615C11.9944 1.07821 11.5787 1.07821 11.3427 1.32615L6.15169 6.65399C5.93258 6.87886 5.57865 6.87886 5.35955 6.65399L5.30899 6.60209C4.85393 6.12351 4.23595 5.86404 3.58427 5.86404ZM5.46629 11.6878C5.11236 11.6878 4.77528 11.5436 4.52247 11.2899L2.64045 9.3525C2.1236 8.82203 2.11798 7.95135 2.64045 7.41511C3.14607 6.89616 4.02247 6.89616 4.52809 7.41511L6.41573 9.3525C6.9382 9.88298 6.9382 10.7537 6.41573 11.2899C6.1573 11.5494 5.82584 11.6878 5.46629 11.6878ZM3.58427 8.17046C3.55056 8.17046 3.48876 8.17623 3.43258 8.23389C3.35393 8.32038 3.35393 8.453 3.43258 8.53949L5.32022 10.4769C5.42697 10.5864 5.51124 10.5864 5.61798 10.4769C5.69663 10.3962 5.69663 10.2578 5.61798 10.1713L3.73034 8.23389C3.67416 8.17623 3.61236 8.17046 3.58427 8.17046Z" fill="#404040"/>
</g>
<defs>
<clipPath id="clip0">
<rect width="14" height="14" fill="white"/>
</clipPath>
</defs>
</svg>
