<svg width="14" height="14" viewBox="0 0 14 14" fill="none" xmlns="http://www.w3.org/2000/svg">
<g clip-path="url(#clip0)">
<path d="M11.0471 14C8.36523 14 5.58692 12.7645 3.4354 10.613L3.39321 10.5648C1.15731 8.31081 -0.0600845 5.48429 0.000182371 2.7542L0.00620906 2.55532L0.13277 2.39862C0.325624 2.15153 0.518478 1.93457 0.717358 1.73569C1.44659 1.00043 2.3084 0.439948 3.27267 0.0662936C3.38718 0.0241068 3.51977 0 3.66441 0C3.98985 0 4.71908 0.162721 4.90591 0.674989C5.23738 1.59105 5.65322 2.7783 5.95455 3.92338C6.03893 4.24279 5.95455 5.01421 5.50858 5.29746L4.44185 5.97245C4.45391 5.97848 4.44788 6.14722 4.58649 6.34008C5.00233 6.90659 5.47844 7.46707 6.00879 8.00947C6.54517 8.53379 7.09962 9.0099 7.66613 9.41972C7.77461 9.49806 7.90117 9.54628 7.9976 9.54628L8.36523 9.03401L8.70272 8.49763C8.99803 8.03961 9.73931 8.02755 9.81766 8.02755C9.90203 8.02755 9.98038 8.03358 10.0527 8.05166C11.4569 8.36505 12.2946 8.63625 13.3614 9.11838C13.8375 9.33534 14.1388 10.1972 13.9279 10.7396C13.5542 11.6978 12.9998 12.5596 12.2705 13.2889C12.0656 13.4938 11.8426 13.6926 11.6076 13.8734L11.4509 13.994L11.0471 14ZM1.20552 2.98321C1.21757 5.30951 2.33854 7.81059 4.24297 9.71502L4.30324 9.77529C6.20767 11.6797 8.66054 12.7886 11.023 12.7947C11.1616 12.6802 11.3002 12.5536 11.4268 12.4331C12.0355 11.8244 12.5056 11.1012 12.8129 10.2996C12.8069 10.2936 12.7828 10.2213 12.7587 10.161C11.8245 9.74516 11.0592 9.50409 9.79958 9.22084C9.76945 9.22686 9.70918 9.23892 9.65494 9.25097L9.04624 10.2092C8.67259 10.8179 7.67216 10.9204 6.95498 10.39C6.34629 9.95006 5.74362 9.43177 5.15903 8.85923C4.58047 8.26862 4.06217 7.66595 3.6162 7.05123C3.31486 6.64744 3.19433 6.1653 3.2787 5.73138C3.345 5.39991 3.53182 5.12269 3.80302 4.95394L4.75524 4.35127C4.76729 4.291 4.77935 4.21868 4.77935 4.18252C4.51417 3.19415 4.13449 2.10934 3.82713 1.2415C3.77289 1.22342 3.71262 1.20534 3.66441 1.20534C2.89902 1.50667 2.18184 1.97675 1.56712 2.58545C1.44659 2.70598 1.32605 2.83857 1.20552 2.98321Z" fill="#404040"/>
</g>
<defs>
<clipPath id="clip0">
<rect width="14" height="14" fill="white"/>
</clipPath>
</defs>
</svg>
