<svg width="17" height="16" viewBox="0 0 17 16" fill="none" xmlns="http://www.w3.org/2000/svg">
<path d="M15.7843 6.51022C15.6653 6.17022 15.3423 5.94922 14.9598 5.94922H8.8483C8.4573 5.94922 8.14281 6.17022 8.01531 6.51022L6.7998 10.0037L6.8083 14.6872C6.8083 15.0102 7.0718 15.2992 7.3948 15.2992H7.9218C8.2448 15.2992 8.4998 14.9762 8.4998 14.6532V13.5992H15.2998V14.6532C15.2998 14.9762 15.5633 15.2992 15.8863 15.2992H16.4048C16.7278 15.2992 16.9913 15.0102 16.9913 14.6872L16.9998 13.5227V10.0037L15.7843 6.51022ZM8.8483 6.79922H14.9598L15.8353 9.34922H7.9728L8.8483 6.79922ZM8.4998 11.8992C8.0323 11.8992 7.6498 11.5167 7.6498 11.0492C7.6498 10.5817 8.0323 10.1992 8.4998 10.1992C8.9673 10.1992 9.3498 10.5817 9.3498 11.0492C9.3498 11.5167 8.9673 11.8992 8.4998 11.8992ZM15.2998 11.8992C14.8323 11.8992 14.4498 11.5167 14.4498 11.0492C14.4498 10.5817 14.8323 10.1992 15.2998 10.1992C15.7673 10.1992 16.1498 10.5817 16.1498 11.0492C16.1498 11.5167 15.7673 11.8992 15.2998 11.8992Z" fill="#404040"/>
<path d="M10.2 5.1H11.05V0H4.25V4.25H0V15.3H0.85V5.1H5.1V0.85H10.2V5.1Z" fill="#404040"/>
<path d="M4.2498 6.79883H2.5498V8.49883H4.2498V6.79883Z" fill="#404040"/>
<path d="M8.4998 1.69922H6.7998V3.39922H8.4998V1.69922Z" fill="#404040"/>
<path d="M4.2498 10.1992H2.5498V11.8992H4.2498V10.1992Z" fill="#404040"/>
<path d="M4.2498 13.5996H2.5498V15.2996H4.2498V13.5996Z" fill="#404040"/>
</svg>
