<svg width="14" height="14" viewBox="0 0 14 14" fill="none" xmlns="http://www.w3.org/2000/svg">
<path d="M6.99628 13.9985C5.12982 13.9985 3.37034 13.2733 2.04479 11.9478C0.725188 10.6282 0 8.8687 0 7.00223C0 5.13576 0.725188 3.37629 2.05074 2.05074C3.37034 0.725188 5.12982 0 7.00223 0C8.87464 0 10.6282 0.725188 11.9537 2.05074C14.6821 4.77911 14.6821 9.2194 11.9537 11.9478C10.6282 13.2733 8.8687 13.9985 6.99628 13.9985ZM7.00223 1.18883C5.44486 1.18883 3.98854 1.79514 2.88887 2.88887C1.79514 3.98854 1.18883 5.44486 1.18883 7.00223C1.18883 8.5596 1.79514 10.0159 2.88887 11.1096C3.98854 12.2093 5.44486 12.8097 6.99628 12.8097C8.54771 12.8097 10.01 12.2034 11.1096 11.1096C13.3744 8.84492 13.3744 5.15954 11.1096 2.88887C10.01 1.79514 8.55366 1.18883 7.00223 1.18883Z" fill="#404040"/>
<path d="M6.99617 13.9987C5.1297 13.9987 3.37023 13.2735 2.04468 11.948C1.8723 11.7756 1.7118 11.5973 1.5632 11.413C1.40865 11.2228 1.38488 10.9553 1.5097 10.7472C1.6702 10.4619 1.89013 10.242 2.14573 10.1053C3.06707 9.6654 4.03597 9.36224 5.04054 9.18392C4.76711 8.94021 4.59472 8.63111 4.565 8.32796C4.55906 8.25068 4.54717 8.17341 4.54123 8.09019C4.30346 7.97131 4.13702 7.73354 4.1073 7.44822L3.98248 6.301C3.95275 6.03351 4.05975 5.77791 4.24996 5.61147L4.22024 5.31427C4.17863 4.91006 4.08947 3.959 4.83844 3.29325C5.3318 2.81177 6.12238 2.52051 7.00211 2.52051C7.8759 2.52051 8.67837 2.80583 9.18957 3.31108C9.91475 3.959 9.82559 4.90412 9.78993 5.30832L9.74832 5.61147C9.93853 5.77791 10.0455 6.03351 10.0158 6.301L9.89692 7.46011C9.87314 7.73949 9.70076 7.97725 9.463 8.10208L9.43328 8.35174C9.4095 8.643 9.23712 8.94615 8.96369 9.19581C9.96825 9.36819 10.9312 9.67728 11.8347 10.1053C12.1082 10.2479 12.3281 10.4738 12.4886 10.7591C12.6075 10.9731 12.5837 11.2347 12.4291 11.4249C12.2805 11.6091 12.12 11.7875 11.9477 11.9598C10.6281 13.2735 8.86858 13.9987 6.99617 13.9987ZM2.86497 11.0861C2.87686 11.0979 2.8828 11.1039 2.89469 11.1158C3.98842 12.2095 5.45068 12.8158 7.00211 12.8158C8.55354 12.8158 10.0158 12.2095 11.1155 11.1158C11.1214 11.1098 11.1333 11.0979 11.1393 11.092C10.2357 10.6818 9.24306 10.4084 8.20878 10.2836C8.04829 10.2658 7.90563 10.1825 7.81052 10.0577C7.71541 9.93288 7.6738 9.77239 7.69164 9.6119L7.81052 8.79755C7.8343 8.62517 7.93535 8.47656 8.07801 8.3874C8.19095 8.31607 8.25039 8.23285 8.26228 8.20313L8.34549 7.46605C8.37521 7.23423 8.52976 7.04402 8.7497 6.97269H8.75564L8.79725 6.55065C8.78536 6.54471 8.77347 6.53876 8.76753 6.53282C8.58326 6.40799 8.48815 6.194 8.51193 5.97407L8.60109 5.21916C8.63676 4.83873 8.64865 4.44642 8.37521 4.20271C8.06612 3.9055 7.56086 3.73312 7.00211 3.73312C6.43742 3.70934 5.93216 3.87578 5.64684 4.1611C5.34963 4.42264 5.36747 4.81496 5.40313 5.19538L5.48635 5.95029C5.51013 6.17023 5.41502 6.39016 5.22481 6.50904C5.21292 6.51499 5.20697 6.52093 5.20103 6.52688L5.24264 6.94891C5.24858 6.94891 5.24858 6.94891 5.25453 6.94891C5.47446 7.02024 5.62901 7.2164 5.65873 7.44228C5.68845 7.69788 5.71817 7.94753 5.74195 8.20313C5.74789 8.20908 5.81328 8.29229 5.92622 8.36362C6.07482 8.45873 6.16993 8.60734 6.19371 8.77972L6.30664 9.58812C6.33042 9.74861 6.28881 9.90911 6.18776 10.0339C6.09265 10.1588 5.94405 10.242 5.78356 10.2658C4.76711 10.4025 3.78037 10.67 2.86497 11.0861Z" fill="#404040"/>
</svg>
