<svg width="17" height="16" viewBox="0 0 17 16" fill="none" xmlns="http://www.w3.org/2000/svg">
<path d="M2.5791 13.4712V15.1376C2.5791 15.5411 2.80322 15.8682 3.07974 15.8682H13.9206C14.1971 15.8682 14.4212 15.5411 14.4212 15.1376V13.4712H2.5791Z" fill="#F8655E"/>
<path d="M17 4.18275C17 2.881 16.2743 1.82192 15.3824 1.82192C14.4904 1.82192 13.7649 2.881 13.7649 4.18275C13.7649 4.80855 13.9329 5.37793 14.2063 5.80081C13.72 6.59469 13.0139 7.09574 12.2287 7.09574C10.9577 7.09574 9.8931 5.78434 9.63552 4.04022C9.93292 3.61185 10.1176 3.01729 10.1176 2.36083C10.1176 1.05908 9.39194 0 8.5 0C7.60806 0 6.88239 1.05908 6.88239 2.36083C6.88239 3.01729 7.06721 3.61185 7.36448 4.04022C7.1069 5.78434 6.04232 7.09574 4.77126 7.09574C3.98606 7.09574 3.27998 6.59469 2.79373 5.80081C3.06714 5.37793 3.23523 4.80855 3.23523 4.18275C3.23523 2.881 2.50956 1.82192 1.61761 1.82192C0.72567 1.82192 0 2.881 0 4.18275C0 5.31092 0.545128 6.25624 1.27106 6.48831C1.41463 8.21767 1.69206 10.3247 2.22772 12.009H14.7723C15.3079 10.3247 15.5854 8.21767 15.7289 6.48831C16.4549 6.25605 17 5.31092 17 4.18275Z" fill="#F8655E"/>
</svg>
