<svg width="17" height="17" viewBox="0 0 17 17" fill="none" xmlns="http://www.w3.org/2000/svg">
<path d="M8.23853 5.66634C6.63944 5.66634 5.34426 6.93426 5.34426 8.49967C5.34426 10.0651 6.63944 11.333 8.23853 11.333C9.83761 11.333 11.1328 10.0651 11.1328 8.49967C11.1328 6.93426 9.83761 5.66634 8.23853 5.66634ZM14.7072 7.79134C14.3744 4.83759 11.9794 2.49301 8.96209 2.16717V0.708008H7.51496V2.16717C4.49769 2.49301 2.10268 4.83759 1.76984 7.79134H0.279297V9.20801H1.76984C2.10268 12.1618 4.49769 14.5063 7.51496 14.8322V16.2913H8.96209V14.8322C11.9794 14.5063 14.3744 12.1618 14.7072 9.20801H16.1978V7.79134H14.7072ZM8.23853 13.458C5.43832 13.458 3.17356 11.2409 3.17356 8.49967C3.17356 5.75842 5.43832 3.54134 8.23853 3.54134C11.0387 3.54134 13.3035 5.75842 13.3035 8.49967C13.3035 11.2409 11.0387 13.458 8.23853 13.458Z" fill="#404040"/>
</svg>
